<svg width="37" height="37" viewBox="0 0 37 37" fill="none" xmlns="http://www.w3.org/2000/svg">
<path fill-rule="evenodd" clip-rule="evenodd" d="M18.5 37C28.7176 37 37 28.7176 37 18.5C37 8.28245 28.7176 0 18.5 0C8.28245 0 0 8.28245 0 18.5C0 28.7176 8.28245 37 18.5 37ZM25.0416 11.9584C25.389 11.6115 25.8599 11.4168 26.3509 11.4172C26.8418 11.4175 27.3125 11.6129 27.6594 11.9603C28.0062 12.3076 28.2009 12.7786 28.2006 13.2695C28.2002 13.7604 28.0049 14.2311 27.6575 14.578L17.1994 25.0361L17.1921 25.0434C17.0206 25.2158 16.8168 25.3526 16.5924 25.446C16.3679 25.5394 16.1272 25.5874 15.8841 25.5874C15.641 25.5874 15.4003 25.5394 15.1758 25.446C14.9514 25.3526 14.7476 25.2158 14.5761 25.0434L14.5688 25.0361L9.3425 19.8098C9.16581 19.6391 9.02487 19.435 8.92791 19.2093C8.83096 18.9836 8.77992 18.7408 8.77779 18.4952C8.77565 18.2495 8.82246 18.0059 8.91548 17.7786C9.0085 17.5512 9.14587 17.3447 9.31957 17.171C9.49327 16.9973 9.69983 16.8599 9.92719 16.7669C10.1545 16.6739 10.3982 16.6271 10.6438 16.6292C10.8894 16.6313 11.1322 16.6824 11.3579 16.7793C11.5836 16.8763 11.7877 17.0172 11.9584 17.1939L15.8841 21.1178L25.0416 11.9603V11.9584Z" fill="#79E039"/>
</svg>
