<svg width="41" height="41" viewBox="0 0 41 41" fill="none" xmlns="http://www.w3.org/2000/svg">
<g clip-path="url(#clip0_87_7182)">
<path d="M39.7957 6.99571C41.3973 5.39415 41.3973 2.79321 39.7957 1.19165C38.1942 -0.409912 35.5932 -0.409912 33.9916 1.19165L20.5001 14.696L6.99571 1.20446C5.39415 -0.3971 2.79321 -0.3971 1.19165 1.20446C-0.409912 2.80603 -0.409912 5.40696 1.19165 7.00852L14.696 20.5001L1.20446 34.0045C-0.397099 35.606 -0.397099 38.207 1.20446 39.8085C2.80603 41.4101 5.40696 41.4101 7.00852 39.8085L20.5001 26.3041L34.0045 39.7957C35.606 41.3973 38.207 41.3973 39.8085 39.7957C41.4101 38.1941 41.4101 35.5932 39.8085 33.9916L26.3041 20.5001L39.7957 6.99571Z" fill="#09424F"/>
</g>
<defs>
<clipPath id="clip0_87_7182">
<rect width="41" height="41" fill="white"/>
</clipPath>
</defs>
</svg>
