<svg width="17" height="18" viewBox="0 0 17 18" fill="none" xmlns="http://www.w3.org/2000/svg">
<path d="M16.25 14.8125L10.4375 8.99999L16.25 3.18749C16.5069 2.93056 16.6513 2.58209 16.6513 2.21874C16.6513 1.85539 16.5069 1.50692 16.25 1.24999C15.9931 0.993066 15.6446 0.848725 15.2812 0.848725C14.9179 0.848725 14.5694 0.993066 14.3125 1.24999L8.5 7.06249L2.6875 1.24999C2.43058 0.993066 2.08211 0.848725 1.71876 0.848725C1.3554 0.848725 1.00693 0.993066 0.750006 1.24999C0.493077 1.50692 0.348737 1.85539 0.348737 2.21874C0.348737 2.58209 0.493078 2.93056 0.750006 3.18749L6.5625 8.99999L0.750006 14.8125C0.493077 15.0694 0.348736 15.4179 0.348736 15.7812C0.348737 16.1446 0.493077 16.4931 0.750006 16.75C1.00693 17.0069 1.3554 17.1513 1.71875 17.1513C2.08211 17.1513 2.43058 17.0069 2.6875 16.75L8.5 10.9375L14.3125 16.75C14.5694 17.0069 14.9179 17.1513 15.2812 17.1513C15.6446 17.1513 15.9931 17.0069 16.25 16.75C16.5069 16.4931 16.6513 16.1446 16.6513 15.7812C16.6513 15.4179 16.5069 15.0694 16.25 14.8125Z" fill="#09424F" fill-opacity="0.54"/>
</svg>
