<svg width="31" height="31" viewBox="0 0 31 31" fill="none" xmlns="http://www.w3.org/2000/svg">
<rect x="1" y="1" width="29" height="29" rx="14.5" stroke="#09424F" stroke-opacity="0.54"/>
<path d="M9.82617 12.0956H10.961H20.0392" stroke="#09424F" stroke-opacity="0.54" stroke-linecap="round" stroke-linejoin="round"/>
<path d="M19.4043 12.0956C19.4043 11.8195 19.1804 11.5956 18.9043 11.5956C18.6282 11.5956 18.4043 11.8195 18.4043 12.0956H19.4043ZM11.4608 12.0956C11.4608 11.8195 11.237 11.5956 10.9608 11.5956C10.6847 11.5956 10.4608 11.8195 10.4608 12.0956H11.4608ZM12.163 12.0956C12.163 12.3718 12.3869 12.5956 12.663 12.5956C12.9392 12.5956 13.163 12.3718 13.163 12.0956H12.163ZM16.7022 12.0956C16.7022 12.3718 16.926 12.5956 17.2022 12.5956C17.4783 12.5956 17.7022 12.3718 17.7022 12.0956H16.7022ZM18.4043 12.0956V20.0391H19.4043V12.0956H18.4043ZM18.4043 20.0391C18.4043 20.3897 18.1201 20.6739 17.7695 20.6739V21.6739C18.6724 21.6739 19.4043 20.942 19.4043 20.0391H18.4043ZM17.7695 20.6739H12.0956V21.6739H17.7695V20.6739ZM12.0956 20.6739C11.745 20.6739 11.4608 20.3897 11.4608 20.0391H10.4608C10.4608 20.942 11.1927 21.6739 12.0956 21.6739V20.6739ZM11.4608 20.0391V12.0956H10.4608V20.0391H11.4608ZM13.163 12.0956V10.9609H12.163V12.0956H13.163ZM13.163 10.9609C13.163 10.6103 13.4472 10.3261 13.7978 10.3261V9.32608C12.8949 9.32608 12.163 10.058 12.163 10.9609H13.163ZM13.7978 10.3261H16.0674V9.32608H13.7978V10.3261ZM16.0674 10.3261C16.418 10.3261 16.7022 10.6103 16.7022 10.9609H17.7022C17.7022 10.058 16.9702 9.32608 16.0674 9.32608V10.3261ZM16.7022 10.9609V12.0956H17.7022V10.9609H16.7022Z" fill="#09424F" fill-opacity="0.54"/>
<path d="M13.7977 14.9326V18.3369" stroke="#09424F" stroke-opacity="0.54" stroke-linecap="round" stroke-linejoin="round"/>
<path d="M16.0676 14.9326V18.3369" stroke="#09424F" stroke-opacity="0.54" stroke-linecap="round" stroke-linejoin="round"/>
</svg>
