<svg width="27" height="14" viewBox="0 0 27 14" fill="none" xmlns="http://www.w3.org/2000/svg">
<g clip-path="url(#clip0_80_6846)">
<path fill-rule="evenodd" clip-rule="evenodd" d="M0.0523682 0.0313721H26.892V13.4019H0.0523682V0.0313721Z" fill="#2C6698" stroke="black" stroke-width="0.0269745" stroke-miterlimit="2.613"/>
<path fill-rule="evenodd" clip-rule="evenodd" d="M16.0214 9.40052L24.1587 13.4467H26.9102V12.1161L20.2205 8.90624L16.0214 8.88813V9.40052ZM10.9232 9.41863L2.78586 13.4648H0.0344625V12.1341L6.72415 8.92397L10.9232 8.90611V9.41863ZM16.0483 4.09553L24.1947 0.0493469H26.9459V1.38009L20.2471 4.59006L16.0483 4.60817V4.09553ZM10.9143 4.09553L2.76788 0.0494718H0.0164795V1.38022L6.71516 4.59019L10.9143 4.60817V4.09553Z" fill="white" stroke="white" stroke-width="0.0269745" stroke-miterlimit="2.613"/>
<path fill-rule="evenodd" clip-rule="evenodd" d="M0.0614014 4.51825H26.8921V8.89712H0.0614014V4.51825Z" fill="white" stroke="white" stroke-width="0.0269745" stroke-miterlimit="2.613"/>
<path fill-rule="evenodd" clip-rule="evenodd" d="M10.9321 0.0584412H16.0125V13.411H10.9321V0.0584412Z" fill="white" stroke="white" stroke-width="0.0269745" stroke-miterlimit="2.613"/>
<path fill-rule="evenodd" clip-rule="evenodd" d="M11.8671 0.0134888H15.0772V13.411H11.8671V0.0134888ZM0.0343018 13.411L8.97186 8.94206H10.932L1.9405 13.4468C1.9405 13.4468 0.0343018 13.4468 0.0343018 13.411ZM16.084 4.5271L25.0397 0.0403384H26.9907L18.0353 4.5271C18.0353 4.5271 16.084 4.56319 16.084 4.5271ZM0.0792593 1.04751L7.33541 4.53622H9.19665L0.0882508 0.292101C0.0882508 0.292101 0.0792593 1.13743 0.0792593 1.04751ZM26.874 12.5207L19.555 8.90622L17.5859 8.89723L26.874 13.4288V12.5207Z" fill="#B01842" stroke="#B01842" stroke-width="0.0269745" stroke-miterlimit="2.613"/>
<path fill-rule="evenodd" clip-rule="evenodd" d="M15.9945 4.14059L16.1384 4.11362L16.0125 4.65298C16.0125 4.65298 16.0125 4.15845 15.9945 4.14059Z" fill="white" stroke="white" stroke-width="0.0269745" stroke-miterlimit="2.613"/>
<path fill-rule="evenodd" clip-rule="evenodd" d="M0.0614014 5.55212H26.8921V7.89004H0.0614014V5.55212Z" fill="#B01842" stroke="#B01842" stroke-width="0.0269745" stroke-miterlimit="2.613"/>
</g>
<defs>
<clipPath id="clip0_80_6846">
<rect width="27" height="13.4784" fill="white"/>
</clipPath>
</defs>
</svg>
