<svg width="17" height="20" viewBox="0 0 17 20" fill="none" xmlns="http://www.w3.org/2000/svg">
<path d="M3.64286 0C1.6317 0 0 1.67969 0 3.75V16.25C0 18.3203 1.6317 20 3.64286 20H14.5714H15.7857C16.4574 20 17 19.4414 17 18.75C17 18.0586 16.4574 17.5 15.7857 17.5V15C16.4574 15 17 14.4414 17 13.75V1.25C17 0.558594 16.4574 0 15.7857 0H14.5714H3.64286ZM3.64286 15H13.3571V17.5H3.64286C2.97121 17.5 2.42857 16.9414 2.42857 16.25C2.42857 15.5586 2.97121 15 3.64286 15ZM4.85714 5.625C4.85714 5.28125 5.13036 5 5.46429 5H12.75C13.0839 5 13.3571 5.28125 13.3571 5.625C13.3571 5.96875 13.0839 6.25 12.75 6.25H5.46429C5.13036 6.25 4.85714 5.96875 4.85714 5.625ZM5.46429 7.5H12.75C13.0839 7.5 13.3571 7.78125 13.3571 8.125C13.3571 8.46875 13.0839 8.75 12.75 8.75H5.46429C5.13036 8.75 4.85714 8.46875 4.85714 8.125C4.85714 7.78125 5.13036 7.5 5.46429 7.5Z" fill="#09424F" fill-opacity="0.54"/>
</svg>
