<svg width="14" height="17" viewBox="0 0 14 17" fill="none" xmlns="http://www.w3.org/2000/svg">
<path d="M11.4604 2.88639C10.6836 2.10297 9.423 2.10297 8.64624 2.88639L2.7887 8.79419C1.44847 10.1459 1.44847 12.3357 2.7887 13.6874C4.12893 15.0391 6.30004 15.0391 7.64027 13.6874L12.4791 8.80703C12.8261 8.45706 13.3928 8.45706 13.7398 8.80703C14.0867 9.157 14.0867 9.72852 13.7398 10.0785L8.90091 14.9588C6.86351 17.0137 3.56546 17.0137 1.52805 14.9588C-0.509351 12.904 -0.509351 9.57761 1.52805 7.52273L7.38559 1.61494C8.85953 0.128355 11.2471 0.128355 12.721 1.61494C14.195 3.10152 14.195 5.50958 12.721 6.99616L7.11819 12.6471C6.20772 13.5654 4.7306 13.5654 3.82014 12.6471C2.90967 11.7288 2.90967 10.239 3.82014 9.32075L8.4043 4.69726C8.75129 4.34729 9.31795 4.34729 9.66494 4.69726C10.0119 5.04723 10.0119 5.61875 9.66494 5.96872L5.08078 10.5922C4.86749 10.8073 4.86749 11.1605 5.08078 11.3756C5.29407 11.5908 5.64425 11.5908 5.85754 11.3756L11.4604 5.7247C12.2372 4.94128 12.2372 3.66982 11.4604 2.88639Z" fill="#09424F" fill-opacity="0.54"/>
</svg>
