<svg width="9" height="10" viewBox="0 0 9 10" fill="none" xmlns="http://www.w3.org/2000/svg">
<path fill-rule="evenodd" clip-rule="evenodd" d="M4.5 9.5C6.98535 9.5 9 7.48535 9 5C9 2.51465 6.98535 0.5 4.5 0.5C2.01465 0.5 0 2.51465 0 5C0 7.48535 2.01465 9.5 4.5 9.5ZM6.0912 3.4088C6.1757 3.32442 6.29025 3.27707 6.40967 3.27715C6.52908 3.27723 6.64357 3.32475 6.72795 3.40925C6.81233 3.49375 6.85968 3.6083 6.8596 3.72772C6.85952 3.84713 6.812 3.96162 6.7275 4.046L4.18365 6.58985L4.18185 6.59165C4.14016 6.63358 4.09058 6.66686 4.03598 6.68957C3.98138 6.71228 3.92283 6.72397 3.8637 6.72397C3.80457 6.72397 3.74602 6.71228 3.69142 6.68957C3.63682 6.66686 3.58724 6.63358 3.54555 6.59165L3.54375 6.58985L2.2725 5.3186C2.22952 5.27709 2.19524 5.22743 2.17165 5.17253C2.14807 5.11763 2.13566 5.05858 2.13514 4.99883C2.13462 4.93908 2.146 4.87982 2.16863 4.82452C2.19126 4.76922 2.22467 4.71897 2.26692 4.67672C2.30917 4.63447 2.35942 4.60106 2.41472 4.57843C2.47002 4.5558 2.52928 4.54442 2.58903 4.54494C2.64878 4.54546 2.70783 4.55787 2.76273 4.58145C2.81763 4.60504 2.86729 4.63932 2.9088 4.6823L3.8637 5.63675L6.0912 3.40925V3.4088Z" fill="#79E039"/>
</svg>
