<svg width="11" height="11" viewBox="0 0 11 11" fill="none" xmlns="http://www.w3.org/2000/svg">
<path fill-rule="evenodd" clip-rule="evenodd" d="M5.5 11C8.53765 11 11 8.53765 11 5.5C11 2.46235 8.53765 0 5.5 0C2.46235 0 0 2.46235 0 5.5C0 8.53765 2.46235 11 5.5 11ZM7.4448 3.5552C7.54808 3.45207 7.68809 3.39419 7.83404 3.39429C7.97999 3.3944 8.11992 3.45247 8.22305 3.55575C8.32618 3.65903 8.38406 3.79904 8.38396 3.94499C8.38385 4.09094 8.32578 4.23087 8.2225 4.334L5.11335 7.44315L5.11115 7.44535C5.06019 7.4966 4.9996 7.53727 4.93287 7.56503C4.86614 7.59278 4.79457 7.60707 4.7223 7.60707C4.65003 7.60707 4.57846 7.59278 4.51173 7.56503C4.445 7.53727 4.38441 7.4966 4.33345 7.44535L4.33125 7.44315L2.7775 5.8894C2.72497 5.83866 2.68307 5.77798 2.65424 5.71087C2.62542 5.64377 2.61025 5.5716 2.60961 5.49857C2.60898 5.42554 2.62289 5.35312 2.65055 5.28553C2.6782 5.21793 2.71904 5.15652 2.77068 5.10488C2.82232 5.05324 2.88373 5.0124 2.95133 4.98475C3.01892 4.95709 3.09134 4.94318 3.16437 4.94381C3.2374 4.94445 3.30957 4.95962 3.37667 4.98844C3.44377 5.01727 3.50446 5.05917 3.5552 5.1117L4.7223 6.27825L7.4448 3.55575V3.5552Z" fill="#79E039"/>
</svg>
