<svg width="20" height="20" viewBox="0 0 20 20" fill="none" xmlns="http://www.w3.org/2000/svg">
<path d="M2.5 5.625C2.99728 5.625 3.47419 5.42746 3.82583 5.07583C4.17746 4.72419 4.375 4.24728 4.375 3.75C4.375 3.25272 4.17746 2.77581 3.82583 2.42417C3.47419 2.07254 2.99728 1.875 2.5 1.875C2.00272 1.875 1.52581 2.07254 1.17417 2.42417C0.822544 2.77581 0.625 3.25272 0.625 3.75C0.625 4.24728 0.822544 4.72419 1.17417 5.07583C1.52581 5.42746 2.00272 5.625 2.5 5.625ZM7.5 2.5C6.80859 2.5 6.25 3.05859 6.25 3.75C6.25 4.44141 6.80859 5 7.5 5H18.75C19.4414 5 20 4.44141 20 3.75C20 3.05859 19.4414 2.5 18.75 2.5H7.5ZM7.5 8.75C6.80859 8.75 6.25 9.30859 6.25 10C6.25 10.6914 6.80859 11.25 7.5 11.25H18.75C19.4414 11.25 20 10.6914 20 10C20 9.30859 19.4414 8.75 18.75 8.75H7.5ZM7.5 15C6.80859 15 6.25 15.5586 6.25 16.25C6.25 16.9414 6.80859 17.5 7.5 17.5H18.75C19.4414 17.5 20 16.9414 20 16.25C20 15.5586 19.4414 15 18.75 15H7.5ZM2.5 18.125C2.99728 18.125 3.47419 17.9275 3.82583 17.5758C4.17746 17.2242 4.375 16.7473 4.375 16.25C4.375 15.7527 4.17746 15.2758 3.82583 14.9242C3.47419 14.5725 2.99728 14.375 2.5 14.375C2.00272 14.375 1.52581 14.5725 1.17417 14.9242C0.822544 15.2758 0.625 15.7527 0.625 16.25C0.625 16.7473 0.822544 17.2242 1.17417 17.5758C1.52581 17.9275 2.00272 18.125 2.5 18.125ZM4.375 10C4.375 9.75377 4.3265 9.50995 4.23227 9.28247C4.13805 9.05498 3.99993 8.84828 3.82583 8.67417C3.65172 8.50006 3.44502 8.36195 3.21753 8.26773C2.99005 8.1735 2.74623 8.125 2.5 8.125C2.25377 8.125 2.00995 8.1735 1.78247 8.26773C1.55498 8.36195 1.34828 8.50006 1.17417 8.67417C1.00006 8.84828 0.861953 9.05498 0.767726 9.28247C0.673498 9.50995 0.625 9.75377 0.625 10C0.625 10.2462 0.673498 10.49 0.767726 10.7175C0.861953 10.945 1.00006 11.1517 1.17417 11.3258C1.34828 11.4999 1.55498 11.638 1.78247 11.7323C2.00995 11.8265 2.25377 11.875 2.5 11.875C2.74623 11.875 2.99005 11.8265 3.21753 11.7323C3.44502 11.638 3.65172 11.4999 3.82583 11.3258C3.99993 11.1517 4.13805 10.945 4.23227 10.7175C4.3265 10.49 4.375 10.2462 4.375 10Z" fill="#09424F" fill-opacity="0.54"/>
</svg>
