<svg width="37" height="37" viewBox="0 0 37 37" fill="none" xmlns="http://www.w3.org/2000/svg">
<path d="M18.5 0C14.8411 0 11.2643 1.08501 8.22196 3.11781C5.17965 5.15062 2.80846 8.03992 1.40824 11.4204C0.00801576 14.8008 -0.358346 18.5205 0.355481 22.1092C1.06931 25.6978 2.83126 28.9942 5.41853 31.5815C8.0058 34.1687 11.3022 35.9307 14.8908 36.6445C18.4795 37.3583 22.1992 36.992 25.5796 35.5918C28.9601 34.1915 31.8494 31.8204 33.8822 28.778C35.915 25.7357 37 22.159 37 18.5C36.9943 13.5952 35.0434 8.89298 31.5752 5.42478C28.107 1.95659 23.4048 0.00566884 18.5 0ZM25.1985 23.1861C25.3308 23.3182 25.4359 23.4751 25.5076 23.6478C25.5793 23.8205 25.6162 24.0056 25.6163 24.1926C25.6164 24.3796 25.5797 24.5648 25.5081 24.7376C25.4366 24.9103 25.3318 25.0673 25.1995 25.1995C25.0673 25.3318 24.9103 25.4366 24.7376 25.5081C24.5648 25.5796 24.3796 25.6164 24.1926 25.6163C24.0056 25.6162 23.8205 25.5792 23.6478 25.5076C23.4751 25.4359 23.3182 25.3308 23.1862 25.1985L18.5 20.5123L13.8139 25.1985C13.5469 25.4648 13.1851 25.6144 12.808 25.6142C12.4309 25.614 12.0693 25.4641 11.8026 25.1974C11.5359 24.9307 11.386 24.5691 11.3858 24.192C11.3856 23.8149 11.5352 23.4531 11.8015 23.1861L16.4877 18.5L11.8015 13.8138C11.5352 13.5469 11.3856 13.1851 11.3858 12.808C11.386 12.4309 11.5359 12.0693 11.8026 11.8026C12.0693 11.5359 12.4309 11.386 12.808 11.3858C13.1851 11.3856 13.5469 11.5351 13.8139 11.8015L18.5 16.4877L23.1862 11.8015C23.4531 11.5351 23.8149 11.3856 24.192 11.3858C24.5691 11.386 24.9307 11.5359 25.1974 11.8026C25.4641 12.0693 25.614 12.4309 25.6142 12.808C25.6144 13.1851 25.4649 13.5469 25.1985 13.8138L20.5123 18.5L25.1985 23.1861Z" fill="#FF7676"/>
</svg>
